<?xml version="1.0" standalone="no"?>
<!DOCTYPE svg PUBLIC "-//W3C//DTD SVG 20010904//EN"
 "http://www.w3.org/TR/2001/REC-SVG-20010904/DTD/svg10.dtd">
<svg version="1.0" xmlns="http://www.w3.org/2000/svg"
 width="614.000000pt" height="368.000000pt" viewBox="0 0 614.000000 368.000000"
 preserveAspectRatio="xMidYMid meet">

<g transform="translate(0.000000,368.000000) scale(0.100000,-0.100000)"
fill="#211E1F" stroke="none">
<path d="M0 1840 l0 -1840 3070 0 3070 0 0 1840 0 1840 -3070 0 -3070 0 0
-1840z m5880 1555 c0 -12 -17 -15 -95 -15 -78 0 -95 3 -95 15 0 12 17 15 95
15 78 0 95 -3 95 -15z m0 -130 c0 -12 -17 -15 -95 -15 -78 0 -95 3 -95 15 0
12 17 15 95 15 78 0 95 -3 95 -15z m-440 -100 c27 -14 30 -14 30 0 0 27 18 16
22 -15 5 -36 2 -36 -57 -8 -42 21 -80 18 -42 -3 24 -14 11 -32 -14 -19 -19 10
-26 40 -12 53 11 11 42 8 73 -8z m440 -30 c0 -13 -24 -15 -160 -15 -136 0
-160 2 -160 15 0 13 24 15 160 15 136 0 160 -2 160 -15z m0 -130 c0 -12 -17
-15 -95 -15 -78 0 -95 3 -95 15 0 12 17 15 95 15 78 0 95 -3 95 -15z m0 -130
c0 -12 -17 -15 -95 -15 -78 0 -95 3 -95 15 0 12 17 15 95 15 78 0 95 -3 95
-15z m0 -130 c0 -12 -17 -15 -95 -15 -78 0 -95 3 -95 15 0 12 17 15 95 15 78
0 95 -3 95 -15z m0 -130 c0 -12 -17 -15 -95 -15 -78 0 -95 3 -95 15 0 12 17
15 95 15 78 0 95 -3 95 -15z m-3425 -63 c115 -53 173 -151 190 -323 13 -127
-29 -285 -93 -352 -37 -39 -106 -73 -177 -86 -70 -13 -275 -15 -275 -2 0 5 11
16 24 24 13 9 33 36 45 60 l21 44 93 5 c130 7 176 35 202 122 19 64 19 208 0
272 -17 57 -56 100 -106 114 -18 6 -68 10 -110 10 l-77 0 -11 32 c-7 18 -28
50 -49 71 l-37 39 155 -4 c135 -3 162 -7 205 -26z m606 4 c134 -49 201 -172
200 -371 0 -235 -85 -361 -265 -394 -33 -6 -109 -11 -169 -11 l-109 0 56 51
c30 27 58 58 61 68 4 15 20 19 85 24 101 7 137 26 170 92 22 45 25 62 25 165
0 104 -3 120 -25 165 -34 66 -72 87 -167 93 -74 5 -75 5 -100 44 -14 21 -44
52 -67 69 l-41 31 150 -5 c107 -3 163 -9 196 -21z m869 -6 c98 -55 138 -179
91 -285 -12 -27 -30 -55 -41 -62 -20 -14 -20 -15 6 -46 39 -46 54 -89 54 -150
0 -103 -66 -189 -165 -216 -23 -6 -135 -11 -262 -11 l-223 0 0 37 c0 20 5 51
12 69 l12 33 219 3 219 3 24 28 c34 40 32 90 -5 128 l-29 29 -201 0 -201 0 0
70 c0 64 2 70 23 75 12 3 101 4 197 3 153 -3 179 -1 202 14 34 23 47 80 27
117 -26 46 -49 51 -266 51 l-201 0 -7 30 c-4 16 -11 32 -16 35 -5 4 -9 22 -9
41 l0 35 248 -3 c242 -3 248 -3 292 -28z m-1798 -43 c13 -18 21 -48 23 -80 1
-29 8 -104 15 -167 19 -182 -3 -340 -60 -421 -21 -29 -24 -30 -31 -13 -4 10
-8 183 -8 383 l-1 364 21 -19 c12 -10 30 -32 41 -47z m616 -12 c8 -16 16 -50
17 -75 1 -25 8 -94 15 -155 21 -181 -3 -344 -61 -426 l-24 -34 -7 40 c-4 22
-7 195 -7 384 l-1 344 26 -24 c14 -13 33 -37 42 -54z m603 44 c29 -29 48 -78
48 -125 0 -21 4 -70 10 -109 30 -198 -4 -427 -72 -483 -12 -10 -15 8 -20 125
-11 215 -9 613 3 613 6 0 19 -9 31 -21z m2529 -54 c0 -13 -24 -15 -160 -15
-136 0 -160 2 -160 15 0 13 24 15 160 15 136 0 160 -2 160 -15z m0 -130 c0
-12 -17 -15 -95 -15 -78 0 -95 3 -95 15 0 12 17 15 95 15 78 0 95 -3 95 -15z
m-2 -133 c3 -9 -24 -12 -92 -12 -72 0 -96 3 -96 13 0 17 182 16 188 -1z m2
-127 c0 -12 -17 -15 -95 -15 -123 0 -125 18 -2 23 50 1 93 4 95 5 1 1 2 -5 2
-13z m0 -132 c0 -10 -23 -13 -95 -13 -52 0 -95 4 -95 9 0 15 21 19 108 18 61
0 82 -4 82 -14z m-390 -108 c0 -12 -13 -15 -55 -15 -36 0 -55 -4 -55 -12 0 -9
-3 -9 -11 -1 -7 7 -9 19 -6 27 9 23 127 23 127 1z m390 -25 c0 -6 -60 -10
-160 -10 -100 0 -160 4 -160 10 0 6 60 10 160 10 100 0 160 -4 160 -10z m0
-130 c0 -6 -38 -10 -95 -10 -57 0 -95 4 -95 10 0 6 38 10 95 10 57 0 95 -4 95
-10z m0 -130 c0 -6 -38 -10 -95 -10 -57 0 -95 4 -95 10 0 6 38 10 95 10 57 0
95 -4 95 -10z m-4320 -100 c50 -26 74 -70 68 -125 -7 -58 -32 -91 -84 -111
-41 -16 -47 -16 -89 0 -42 16 -62 46 -32 46 9 0 17 25 25 73 6 40 14 81 18 90
5 14 0 17 -25 17 -41 0 -52 -26 -22 -49 23 -18 19 -31 -10 -31 -23 0 -42 34
-34 60 16 49 116 65 185 30z m1271 -1 c59 -30 86 -107 58 -162 -37 -71 -98
-98 -165 -72 -40 15 -61 45 -31 45 8 0 17 27 25 73 6 39 14 82 18 93 5 20 3
21 -28 15 -37 -8 -51 -38 -24 -53 22 -12 20 -28 -3 -28 -50 0 -51 72 -1 97 38
19 106 16 151 -8z m1174 -4 c30 -29 32 -56 5 -80 -20 -18 -20 -18 0 -32 11 -8
24 -23 30 -33 26 -49 -44 -109 -113 -96 -54 10 -115 66 -73 66 17 0 22 15 31
87 8 61 39 101 33 43 -3 -33 -1 -35 28 -38 40 -4 68 21 54 48 -22 41 -121 49
-162 13 -18 -16 -14 -43 8 -43 16 0 19 -16 4 -25 -17 -10 -50 15 -50 39 0 22
31 58 60 69 8 3 39 6 68 6 43 1 57 -3 77 -24z m305 18 c0 -5 -7 -30 -15 -57
-21 -70 -20 -162 3 -175 12 -7 14 -13 6 -21 -12 -12 -44 -4 -44 11 0 6 -10 4
-22 -2 -18 -10 -24 -8 -35 7 -22 30 -11 133 14 141 9 3 11 -13 6 -61 -5 -55
-3 -66 9 -66 11 0 17 16 21 63 8 95 27 167 43 167 8 0 14 -3 14 -7z m134 -56
c-19 -71 -18 -151 2 -171 14 -15 14 -17 -2 -23 -10 -4 -22 0 -29 10 -10 14
-17 15 -43 5 -43 -16 -62 1 -62 57 0 53 38 105 76 105 15 0 27 7 30 18 25 80
50 80 28 -1z m-2440 -8 c-8 -14 -34 -11 -34 4 0 8 3 17 7 20 9 9 34 -13 27
-24z m2246 5 c0 -8 -7 -14 -15 -14 -15 0 -21 21 -9 33 10 9 24 -2 24 -19z
m270 6 c0 -4 -6 -13 -14 -19 -17 -14 -31 2 -22 24 5 15 36 10 36 -5z m1360 10
c0 -6 -38 -10 -95 -10 -57 0 -95 4 -95 10 0 6 38 10 95 10 57 0 95 -4 95 -10z
m-3968 -37 c22 -20 23 -56 3 -73 -8 -7 -15 -9 -16 -4 -1 5 -2 20 -2 33 -2 31
-30 49 -50 33 -21 -18 -11 -45 29 -82 39 -35 43 -55 13 -70 -25 -14 -79 4 -79
26 0 17 14 18 40 2 36 -23 34 2 -3 36 -22 20 -37 43 -37 57 0 51 63 78 102 42z
m213 -99 c0 -96 -3 -115 -19 -133 -26 -28 -62 -27 -82 4 -15 23 -12 45 6 45 5
0 12 -9 15 -20 10 -30 43 -25 50 8 15 69 16 66 -5 47 -27 -25 -73 -16 -84 16
-13 38 0 77 39 116 23 23 42 33 57 31 22 -3 23 -6 23 -114z m1056 106 c24 -13
27 -70 4 -70 -9 0 -15 9 -15 25 0 18 -5 25 -19 25 -24 0 -51 -36 -51 -68 0
-57 45 -82 74 -41 8 12 20 19 28 17 17 -6 -44 -68 -67 -68 -25 0 -65 46 -65
75 0 40 27 94 52 105 31 12 36 12 59 0z m159 -9 c5 -11 10 -29 10 -40 0 -34
18 -24 22 12 3 29 6 32 38 32 26 0 36 -5 38 -19 3 -15 0 -18 -18 -13 -27 7
-43 -30 -38 -92 2 -29 -1 -46 -9 -48 -9 -3 -13 9 -13 41 0 55 -14 59 -34 11
-20 -47 -56 -64 -91 -41 -20 13 -25 25 -25 57 0 45 21 93 47 108 28 16 61 13
73 -8z m1438 -81 c3 -109 -15 -162 -56 -168 -28 -4 -62 23 -62 50 0 24 26 23
33 -2 7 -28 43 -26 51 3 3 12 6 33 6 46 0 23 -1 23 -18 8 -40 -37 -82 -15 -82
43 0 60 56 123 105 117 18 -2 20 -10 23 -97z m-3000 78 c29 -29 -1 -88 -45
-88 -27 0 -29 -8 -9 -35 13 -17 17 -18 40 -6 30 17 45 9 26 -14 -13 -16 -67
-20 -86 -7 -20 12 -25 50 -14 91 17 63 57 90 88 59z m414 -29 l-3 -34 20 31
c40 65 47 58 54 -58 3 -58 1 -78 -8 -78 -17 0 -25 23 -25 73 l-1 42 -25 -47
c-13 -27 -29 -48 -34 -48 -11 0 -13 101 -4 138 10 34 29 20 26 -19z m862 18
c16 -26 -12 -71 -47 -75 -30 -4 -35 -23 -12 -42 13 -11 20 -11 40 0 14 7 28
10 32 6 13 -13 -29 -36 -64 -36 -42 0 -57 27 -49 85 11 72 70 110 100 62z
m1053 1 c-18 -77 -19 -98 -3 -98 10 0 20 17 29 47 21 71 37 67 37 -10 0 -36 3
-73 6 -82 5 -13 2 -16 -12 -13 -10 1 -21 14 -24 28 -4 17 -8 21 -14 12 -12
-19 -54 -15 -61 7 -5 17 9 104 21 123 11 17 26 7 21 -14z m444 -15 l0 -38 16
33 c10 18 24 32 35 32 15 0 18 -9 18 -62 0 -35 3 -73 6 -85 5 -17 2 -23 -9
-23 -20 0 -27 21 -27 78 l0 47 -25 -52 c-13 -29 -29 -53 -35 -53 -11 0 -14
117 -4 144 11 28 24 17 25 -21z m-2574 -38 c-4 -42 -2 -59 10 -71 19 -18 3
-40 -21 -31 -12 5 -16 21 -16 66 0 65 6 91 22 91 7 0 9 -20 5 -55z m2513 -10
c0 -37 4 -65 10 -65 16 0 12 -20 -6 -27 -9 -3 -20 0 -25 8 -10 16 -12 109 -3
133 13 35 24 13 24 -49z m-1955 15 c-3 -5 -31 -10 -61 -10 -34 0 -53 4 -49 10
3 6 31 10 61 10 34 0 53 -4 49 -10z m1160 0 c-3 -5 -31 -10 -61 -10 -30 0 -54
5 -54 10 0 6 27 10 61 10 37 0 58 -4 54 -10z m2185 -30 c0 -6 -38 -10 -95 -10
-57 0 -95 4 -95 10 0 6 38 10 95 10 57 0 95 -4 95 -10z m0 -130 c0 -6 -60 -10
-160 -10 -100 0 -160 4 -160 10 0 6 60 10 160 10 100 0 160 -4 160 -10z m0
-130 c0 -6 -38 -10 -95 -10 -57 0 -95 4 -95 10 0 6 38 10 95 10 57 0 95 -4 95
-10z m0 -130 c0 -6 -38 -10 -95 -10 -57 0 -95 4 -95 10 0 6 38 10 95 10 57 0
95 -4 95 -10z m0 -130 c0 -6 -38 -10 -95 -10 -57 0 -95 4 -95 10 0 6 38 10 95
10 57 0 95 -4 95 -10z m-4402 -67 c2 -52 0 -63 -13 -63 -11 0 -15 11 -15 49 0
28 -4 53 -10 56 -18 11 -10 26 13 23 20 -3 22 -9 25 -65z m1310 39 c2 -13 -4
-34 -12 -47 -20 -30 -20 -35 -1 -35 8 0 15 -4 15 -10 0 -5 -16 -10 -35 -10
-19 0 -35 2 -35 5 0 2 9 19 20 37 21 35 26 68 11 68 -5 0 -11 -6 -14 -12 -2
-7 -8 -10 -12 -6 -4 4 -5 14 -1 23 10 26 60 16 64 -13z m1298 -13 c1 -20 4
-41 8 -47 4 -7 2 -21 -4 -32 -13 -24 -58 -27 -67 -5 -8 22 4 30 22 15 13 -10
15 -9 15 8 0 11 -5 22 -11 24 -8 3 -5 10 6 22 13 13 15 20 6 29 -8 8 -11 8
-11 -1 0 -7 -7 -12 -15 -12 -8 0 -15 4 -15 8 0 16 25 33 45 30 16 -2 20 -11
21 -39z m1306 -6 c2 -27 2 -56 0 -65 -5 -22 -32 -24 -32 -3 0 8 -9 15 -20 15
-24 0 -24 -2 0 54 26 61 47 60 52 -1z m488 -83 c0 -6 -38 -10 -95 -10 -57 0
-95 4 -95 10 0 6 38 10 95 10 57 0 95 -4 95 -10z m-5080 -225 c0 -103 -4 -165
-10 -165 -6 0 -10 62 -10 165 0 103 4 165 10 165 6 0 10 -62 10 -165z m660 -6
c0 -135 -2 -159 -15 -159 -13 0 -15 24 -15 158 0 87 3 162 6 165 19 18 24 -19
24 -164z m650 6 c0 -135 -3 -165 -14 -165 -11 0 -14 29 -15 157 0 86 2 160 5
165 18 29 24 -9 24 -157z m650 0 c0 -103 -4 -165 -10 -165 -6 0 -10 62 -10
165 0 103 4 165 10 165 6 0 10 -62 10 -165z m653 -4 c1 -123 -1 -161 -10 -161
-10 0 -13 38 -13 158 0 140 4 181 17 168 2 -2 5 -76 6 -165z m657 -2 c0 -135
-2 -159 -15 -159 -13 0 -15 24 -15 158 0 87 3 162 6 165 19 18 24 -19 24 -164z
m650 6 c0 -103 -4 -165 -10 -165 -6 0 -10 62 -10 165 0 103 4 165 10 165 6 0
10 -62 10 -165z m650 0 c0 -103 -4 -165 -10 -165 -6 0 -10 62 -10 165 0 103 4
165 10 165 6 0 10 -62 10 -165z m-5090 -70 c0 -57 -4 -95 -10 -95 -6 0 -10 38
-10 95 0 57 4 95 10 95 6 0 10 -38 10 -95z m130 0 c0 -57 -4 -95 -10 -95 -6 0
-10 38 -10 95 0 57 4 95 10 95 6 0 10 -38 10 -95z m130 0 c0 -57 -4 -95 -10
-95 -6 0 -10 38 -10 95 0 57 4 95 10 95 6 0 10 -38 10 -95z m130 0 c0 -57 -4
-95 -10 -95 -6 0 -10 38 -10 95 0 57 4 95 10 95 6 0 10 -38 10 -95z m260 0 c0
-57 -4 -95 -10 -95 -6 0 -10 38 -10 95 0 57 4 95 10 95 6 0 10 -38 10 -95z
m130 0 c0 -57 -4 -95 -10 -95 -6 0 -10 38 -10 95 0 57 4 95 10 95 6 0 10 -38
10 -95z m136 0 c0 -72 -3 -95 -13 -95 -10 0 -13 23 -13 95 0 72 3 95 13 95 10
0 13 -23 13 -95z m134 0 c0 -78 -3 -95 -15 -95 -12 0 -15 17 -15 95 0 78 3 95
15 95 12 0 15 -17 15 -95z m260 0 c0 -78 -3 -95 -15 -95 -12 0 -15 17 -15 95
0 78 3 95 15 95 12 0 15 -17 15 -95z m130 0 c0 -78 -3 -95 -15 -95 -12 0 -15
17 -15 95 0 78 3 95 15 95 12 0 15 -17 15 -95z m130 0 c0 -78 -3 -95 -15 -95
-12 0 -15 17 -15 95 0 78 3 95 15 95 12 0 15 -17 15 -95z m130 0 c0 -76 -3
-95 -14 -95 -12 0 -14 18 -13 95 1 71 4 95 14 95 10 0 13 -24 13 -95z m260 0
c0 -57 -4 -95 -10 -95 -6 0 -10 38 -10 95 0 57 4 95 10 95 6 0 10 -38 10 -95z
m130 0 c0 -57 -4 -95 -10 -95 -6 0 -10 38 -10 95 0 57 4 95 10 95 6 0 10 -38
10 -95z m130 0 c0 -57 -4 -95 -10 -95 -6 0 -10 38 -10 95 0 57 4 95 10 95 6 0
10 -38 10 -95z m130 0 c0 -57 -4 -95 -10 -95 -6 0 -10 38 -10 95 0 57 4 95 10
95 6 0 10 -38 10 -95z m260 0 c0 -57 -4 -95 -10 -95 -6 0 -10 38 -10 95 0 57
4 95 10 95 6 0 10 -38 10 -95z m130 0 c0 -57 -4 -95 -10 -95 -6 0 -10 38 -10
95 0 57 4 95 10 95 6 0 10 -38 10 -95z m130 0 c0 -57 -4 -95 -10 -95 -6 0 -10
38 -10 95 0 57 4 95 10 95 6 0 10 -38 10 -95z m130 0 c0 -57 -4 -95 -10 -95
-6 0 -10 38 -10 95 0 57 4 95 10 95 6 0 10 -38 10 -95z m263 3 c-1 -56 -6 -94
-12 -96 -7 -2 -11 28 -11 92 0 70 3 96 13 96 9 0 12 -24 10 -92z m137 -3 c0
-78 -3 -95 -15 -95 -12 0 -15 17 -15 95 0 78 3 95 15 95 12 0 15 -17 15 -95z
m130 0 c0 -78 -3 -95 -15 -95 -12 0 -15 17 -15 95 0 78 3 95 15 95 12 0 15
-17 15 -95z m130 0 c0 -78 -3 -95 -15 -95 -12 0 -15 17 -15 95 0 78 3 95 15
95 12 0 15 -17 15 -95z m260 0 c0 -78 -3 -95 -15 -95 -12 0 -15 17 -15 95 0
78 3 95 15 95 12 0 15 -17 15 -95z m130 0 c0 -52 -4 -95 -9 -95 -5 0 -11 43
-13 95 -2 71 0 95 10 95 9 0 12 -26 12 -95z m130 0 c0 -78 -3 -95 -15 -95 -12
0 -15 17 -15 95 0 78 3 95 15 95 12 0 15 -17 15 -95z m130 0 c0 -57 -4 -95
-10 -95 -6 0 -10 38 -10 95 0 57 4 95 10 95 6 0 10 -38 10 -95z m260 0 c0 -57
-4 -95 -10 -95 -6 0 -10 38 -10 95 0 57 4 95 10 95 6 0 10 -38 10 -95z m130 0
c0 -57 -4 -95 -10 -95 -6 0 -10 38 -10 95 0 57 4 95 10 95 6 0 10 -38 10 -95z
m130 0 c0 -57 -4 -95 -10 -95 -6 0 -10 38 -10 95 0 57 4 95 10 95 6 0 10 -38
10 -95z m130 0 c0 -57 -4 -95 -10 -95 -6 0 -10 38 -10 95 0 57 4 95 10 95 6 0
10 -38 10 -95z m260 0 c0 -57 -4 -95 -10 -95 -6 0 -10 38 -10 95 0 57 4 95 10
95 6 0 10 -38 10 -95z m130 0 c0 -57 -4 -95 -10 -95 -6 0 -10 38 -10 95 0 57
4 95 10 95 6 0 10 -38 10 -95z m135 0 c0 -62 -4 -90 -12 -93 -10 -3 -13 20
-13 93 0 73 3 96 13 92 8 -2 12 -30 12 -92z m132 0 c0 -72 -3 -95 -14 -95 -10
0 -13 22 -13 95 0 75 3 95 14 95 11 0 14 -20 13 -95z"/>
<path d="M1480 1378 c-16 -108 -13 -122 28 -126 48 -5 92 42 92 97 0 47 -38
96 -81 106 -27 7 -27 6 -39 -77z"/>
<path d="M2751 1388 c-7 -40 -14 -85 -16 -100 -8 -48 61 -54 106 -9 33 34 40
91 13 129 -15 22 -63 52 -83 52 -5 0 -14 -33 -20 -72z"/>
<path d="M3906 1344 c-12 -31 -6 -82 10 -88 52 -20 110 3 102 40 -7 38 -101
78 -112 48z"/>
<path d="M4372 1383 c-20 -8 -44 -63 -38 -89 13 -50 54 -20 63 44 5 40 -2 53
-25 45z"/>
<path d="M2050 1358 c-23 -38 -23 -93 0 -93 18 0 64 91 56 111 -9 24 -35 15
-56 -18z"/>
<path d="M3290 1376 c0 -13 7 -29 15 -36 12 -10 15 -9 15 8 0 27 -10 52 -21
52 -5 0 -9 -11 -9 -24z"/>
<path d="M3257 1364 c-9 -9 -9 -66 -1 -88 9 -23 41 -20 55 5 9 18 7 25 -14 43
-14 11 -27 27 -29 34 -2 7 -7 10 -11 6z"/>
<path d="M4700 1363 c-25 -32 -25 -98 0 -98 19 0 50 61 50 98 0 35 -22 35 -50
0z"/>
<path d="M1728 1366 c-6 -15 -8 -29 -5 -32 9 -9 37 15 37 32 0 25 -20 25 -32
0z"/>
<path d="M3002 1378 c-14 -14 -16 -48 -2 -48 5 0 14 9 21 21 13 25 -1 45 -19
27z"/>
<path d="M5350 719 c0 -5 5 -7 10 -4 6 3 10 8 10 11 0 2 -4 4 -10 4 -5 0 -10
-5 -10 -11z"/>
</g>
</svg>
